<svg xmlns="http://www.w3.org/2000/svg" viewBox="0 0 120 120">
<!-- Dot pattern -->
 <rect width="100%" height="100%" fill="blue" />
<g fill="#FFFFFF">
<!-- Center dots -->
<circle cx="60" cy="40" r="10"/>
<circle cx="40" cy="40" r="10"/>
<circle cx="80" cy="40" r="10"/>
<circle cx="60" cy="60" r="10"/>
<circle cx="40" cy="60" r="10"/>
<circle cx="80" cy="60" r="10"/>
<!-- Outer dots -->
<circle cx="20" cy="40" r="6"/>
<circle cx="100" cy="40" r="6"/>
<circle cx="20" cy="60" r="6"/>
<circle cx="100" cy="60" r="6"/>
<circle cx="40" cy="20" r="6"/>
<circle cx="60" cy="20" r="6"/>
<circle cx="80" cy="20" r="6"/>
<circle cx="40" cy="80" r="6"/>
<circle cx="60" cy="80" r="6"/>
<circle cx="80" cy="80" r="6"/>
<!-- Corner dots -->
<circle cx="20" cy="20" r="3"/>
<circle cx="100" cy="20" r="3"/>
<circle cx="20" cy="80" r="3"/>
<circle cx="100" cy="80" r="3"/>
</g>
</svg>